<svg xmlns="http://www.w3.org/2000/svg" xmlns:xlink="http://www.w3.org/1999/xlink" viewBox="0 0 512 512"><defs><style>.a{fill:none;}.b{fill:#02a8f5;}.c{fill:#fff;}.d{clip-path:url(#a);}.e{opacity:0.25;}</style><clipPath id="a"><rect class="a" x="-31.76" y="-2975.29" width="1242" height="2208"/></clipPath></defs><rect class="b" width="512" height="512" rx="80"/><circle class="c" cx="256" cy="256" r="200"/><path class="b" d="M250.68,363.39a1.6,1.6,0,0,0,3.16.23c4.74-25.28,11.62-62.28,27.42-78.08,24.26-24.26,65.1-27.3,98.72-31.7a1.2,1.2,0,0,0,0-2.37l-50.32-8C312.51,238.94,293.78,232.74,281,220c-16.92-16.93-23.69-47.16-28.43-71.42a1.81,1.81,0,0,0-3.5-.23c-3.83,11.85-12.63,37.12-23.92,59.46-18.73,31-60,37-92.4,43a2.11,2.11,0,0,0,0,4.17c16.36,2.71,34.64,6.55,50.32,12.08C238.38,285.77,249,337,250.68,363.39Z"/></svg>